<svg xmlns="http://www.w3.org/2000/svg" viewBox="0 0 24 24"><path fill="currentColor" fill-rule="nonzero" d="M7.7 23.433c1.687 0 3.028-.598 4.016-1.764a6 6 0 0 1-.637-2.33l-.292.473c-.707 1.19-1.652 1.764-3.004 1.764-1.864 0-2.989-1.167-2.989-3.093V9.295c0-3.89 2.522-6.474 6.305-6.474 3.676 0 6.122 2.575 6.122 6.416 0 1.132-.233 1.984-.61 2.732a6.2 6.2 0 0 1 1.957-.086c.273-.725.447-1.567.447-2.646C19.015 4.3 15.845 1 11.1 1 6.26 1 3 4.326 3 9.295v9.275c0 3.003 1.816 4.863 4.7 4.863m-.703-8.883a.835.835 0 0 0 .827-.842V9.24c0-1.917 1.295-3.186 3.267-3.186 1.904 0 3.138 1.255 3.138 3.17 0 .457.37.84.82.84a.843.843 0 0 0 .827-.84c0-2.893-1.914-4.837-4.785-4.837-2.936 0-4.914 1.95-4.914 4.853v4.468c0 .465.361.842.82.842m-.102-2.991h3.286c.667 0 1.088.407 1.088 1.004 0 .322-.156.728-.396 1.023l-1.164 1.486a.98.98 0 0 0-.221.597c0 .45.375.82.827.82.254 0 .49-.132.67-.36l1.266-1.63c.43-.55.709-1.351.709-2.002 0-1.553-1.117-2.602-2.801-2.602H6.895zm10.837 1.75c2.893 0 5.268 2.41 5.268 5.344C23 21.576 20.59 24 17.732 24c-2.882 0-5.268-2.407-5.268-5.347 0-2.925 2.386-5.343 5.268-5.343m.022.964c-1.562 0-2.388.782-2.388 2.383v5.772c0 .551.293.86.782.86.498 0 .786-.299.786-.86v-1.743h.073c.234.561.81.893 1.509.893 1.25 0 1.987-.8 1.987-2.036 0-1.025-.474-1.65-1.401-1.87v-.068c.537-.245.893-.835.893-1.514 0-1.128-.815-1.817-2.24-1.817m.01 1.172c.503 0 .81.327.81.855 0 .469-.224.796-.683.874-.337.132-.479.283-.479.542 0 .288.147.444.498.552.664.122.982.488.982 1.103 0 .61-.366.996-.928.996-.674 0-1.03-.469-1.03-1.328v-2.46c0-.743.254-1.134.83-1.134"/></svg>