<svg xmlns="http://www.w3.org/2000/svg" viewBox="0 0 2400 2400"><path fill="currentColor" fill-rule="nonzero" d="M1885.544 2396.113c-7.553-1.756-24.132-8.22-36.883-14.296-21.076-10.117-41.766-29.682-236.366-223.861-148.234-147.953-214.869-216.766-218.663-225.863-13.77-33.23 1.09-66.39 34.986-78.051 18.617-6.393 35.373-3.97 50.09 7.27 7.061 5.375 101.41 98.847 209.706 207.704 108.26 108.857 203.839 202.574 212.375 208.265 17.282 11.521 30.665 12.996 46.05 5.023 10.187-5.234 20.97-21.182 20.97-30.947 0-2.775-103.13-108.61-229.2-235.242l-229.2-230.219-57.958-28.171c-194.671-94.631-330.962-212.62-398.826-345.329-49.072-95.93-66.284-188.278-53.92-289.196 10.292-84.093 52.304-170.89 109.103-225.372 46.508-44.61 125.472-85.778 181.64-94.736 6.498-1.018 15.209-2.67 19.319-3.653 5.69-1.37 64-4.601 84.198-4.672 1.616 0 2.213-47.807 1.265-106.257-1.792-111.457-3.83-128.669-23.22-197.622-42.572-151.22-165.094-286.983-312.379-346.066-48.158-19.32-91.47-28.312-146.793-30.56-53.533-2.143-99.373 2.494-145.775 14.718C663.669 155.992 576.8 215.286 576.8 258.175c0 13.945 21.252 52.374 38.464 69.55 8.781 8.782 31.227 27.33 49.844 41.274 44.014 32.914 70.113 61.401 85.217 93.05 25.115 52.55 24.272 43.346 25.783 289.478l1.335 221.964-20.093 29.19c-58.38 84.83-81.458 172.647-77.735 295.8 2.81 92.875 17.915 160.88 51.882 233.345 46.262 98.74 143.281 196.638 246.237 248.485l24.097 12.154v182.552h129.581l1.09-106.538 1.053-106.504 9.66-14.577c23.078-34.846 66.916-35.935 92.593-2.284l10.152 13.313.983 146.934.984 146.934h66.81c72.255 0 77.42 1.09 95.228 19.882 25.397 26.872 20.655 66.81-10.222 86.025l-13.277 8.254-282.769 1.757c-259.76 1.616-283.822 2.248-295.835 7.903-54.551 25.678-104.923-33.054-85.498-99.724 17.247-59.328 77.173-103.096 139.804-102.077l23.745.386v-113.95l-20.197-11.978c-73.52-43.628-156.875-127.404-204.683-205.701-36.25-59.434-60.452-116.128-76.47-179.145-18.406-72.396-20.057-87.887-20.057-187.927 0-89.643.351-94.63 9.87-135.237 17.107-73.239 41.941-136.01 72.15-182.376 9.203-14.156 9.344-15.245 11.065-92.489 1.16-50.933.527-78.156-1.756-78.12-1.932 0-8.255 2.634-14.05 5.83-16.826 9.309-62.807 8.466-81.53-1.51-8.149-4.32-16.158-7.869-17.879-7.869-1.686 0-7.657 9.098-13.313 20.198-10.01 19.776-10.257 21.603-11.978 88.87-1.967 77.208-3.864 83.636-27.504 93.753-35.618 15.28-64.106 2.985-121.959-52.585-44.049-42.327-68.04-74.643-91.048-122.732-43.732-91.293-52.373-200.502-24.659-311.255 10.363-41.344 42.433-107.98 68.848-143.035 24.694-32.773 73.38-80.65 101.516-99.865 20.198-13.77 24.342-18.687 36.285-42.96 39.096-79.315 121.222-143.667 232.397-181.955 37.059-12.786 52.058-17.106 80.791-23.324C815.1-.004 939.833-3.13 980.756 4.141c64.14 11.38 100.532 23.042 159.825 51.249 56.308 26.802 108.963 61.507 152.8 100.637 88.063 78.684 162.812 202.048 194.39 320.846 18.582 69.831 20.584 89.923 22.481 225.441l1.792 127.088 10.819 4.496c15.069 6.218 69.234 42.187 96.914 64.317 64.913 51.917 126.385 134.429 164.497 220.84 23.464 53.252 63.157 162.25 139.628 383.511 18.02 52.163 44.891 128.809 59.715 170.363 14.823 41.555 40.922 115.848 58.029 165.095 41.238 118.903 73.555 210.407 99.232 281.012 26.556 72.957 27.188 77.664 13.278 99.443-15.42 24.097-35.548 31.368-60.242 21.813-4.707-1.826-6.007 1.722-7.833 21.498-4.391 47.14-37.972 97.827-78.297 118.27-37.094 18.758-84.234 24.976-122.24 16.053m129.757-276.2c-1.335-3.371-14.788-41.694-29.858-85.18-15.104-43.487-33.721-96.423-41.414-117.675l-13.98-38.639-43.452-3.969c-23.92-2.178-63.052-7.341-86.973-11.416-23.886-4.11-45.805-7.447-48.685-7.447s54.41 60.874 127.333 135.237c72.888 74.363 134.113 135.237 136.01 135.237s2.354-2.775 1.019-6.147m-128.282-364.894c0-1.194-15.807-47-35.127-101.761-19.32-54.763-35.126-101.06-35.126-102.886 0-3.161-16.79-5.093-80.79-9.238-112.933-7.306-187.12-24.448-266.014-61.542-70.604-33.16-120.66-68.496-180.83-127.65-30.701-30.138-44.928-51.144-44.893-66.143.07-37.69 33.652-67.513 68.602-60.944 10.398 1.967 19.882 9.238 45.279 34.845 83.425 83.953 162.178 128.142 270.72 151.922 35.512 7.799 94.84 15.35 120.553 15.386 21.392.035 22.095-.246 19.777-7.868-4.356-14.437-43.17-122.662-44.33-123.716-.632-.562-17.774-2.107-38.042-3.442-112.791-7.447-189.121-38.64-274.549-112.23-33.159-28.557-43.521-47.14-39.868-71.482 4.601-30.735 39.447-54.446 68.426-46.542 7.026 1.932 24.589 14.015 40.501 27.89 37.515 32.703 80.37 57.783 120.87 70.745 36.918 11.837 77.595 17.423 77.595 10.678 0-2.248-6.499-17.106-14.437-32.984-56.624-113.458-154.206-197.762-253.262-218.802-54.798-11.627-120.098-3.759-164.322 19.81-58.942 31.404-101.41 82.478-123.715 148.762-9.239 27.398-10.995 38.533-12.505 79.526-1.054 29.366-.14 57.045 2.458 72.01 8.782 50.933 36.146 117.849 66.214 161.792 81.95 119.922 252.524 235.558 441.61 299.383 42.468 14.331 101.937 30.735 124.699 34.354 6.744 1.088 13.313 2.564 14.507 3.337 1.967 1.194 24.378 4.742 66.284 10.502 16.65 2.284 53.814 7.553 57.08 8.08 1.44.245 2.635-.563 2.635-1.792M409.634 786.864c2.81-18.547 24.73-58.732 43.943-80.545 42.995-48.79 113.95-79.07 187.33-79.948l16.685-.21v-54.166c0-53.99-.035-54.235-9.66-65.651-5.304-6.323-27.047-24.378-48.299-40.115-41.414-30.7-77.559-66.564-96.422-95.684l-11.697-18.055-19.706 15.315c-51.214 39.728-91.645 100.567-109.77 165.27-6.78 24.167-7.904 36.953-8.08 91.329-.245 71.096 2.53 85.463 26.732 138.433 20.128 44.049 25.291 48.3 28.944 24.027m504.908-327.695c-27.855-7.658-51.179-27.118-66.178-55.219-9.484-17.774-8.5-62.947 1.827-84.058 16.369-33.51 52.303-56.132 89.818-56.588 39.447-.492 71.763 20.935 90.345 59.89 9.765 20.48 10.784 25.572 9.309 46.192-.949 13.594-4.637 29.014-8.887 37.234-22.024 42.714-71.166 64.913-116.234 52.549"/></svg>