<svg xmlns="http://www.w3.org/2000/svg" viewBox="0 0 24 24"><path fill="currentColor" fill-rule="nonzero" d="M9.162 22.56h1.913c4.388 0 7.162-2.363 7.162-6.085V4.152C18.237 2.103 14.845 1 10.119 1 5.395 1 2 2.103 2 4.152v12.323c0 3.722 2.78 6.086 7.162 6.086m0-1.921c-3.225 0-5.237-1.602-5.237-4.164V5.685c1.338.535 3.613.794 6.194.794s4.855-.259 6.196-.793v10.79c0 2.561-2.015 4.163-5.24 4.163zm.957-15.99c-3.406 0-5.77-.371-5.77-.922 0-.55 2.364-.928 5.77-.928s5.768.378 5.768.928-2.363.922-5.768.922m6.844 11.908h1.841c1.888 0 3.097-1.259 3.097-3.168V9.467c0-1.916-1.21-3.168-3.097-3.168h-1.841v1.887h1.841c.838 0 1.213.388 1.213 1.281v3.922c0 .886-.375 1.28-1.213 1.28h-1.841z"/></svg>