<svg xmlns="http://www.w3.org/2000/svg" viewBox="0 0 2400 2400"><path fill="currentColor" fill-rule="nonzero" d="M254.333 2279.057c-22.67-13.839-31.403-37.407-22.284-60.173 7.738-19.33 19.65-24.788 57.315-26.361l31.532-1.285-1.06-138.488-1.06-138.488-33.682-1.605c-18.945-.9-36.926-3.468-41.068-5.812-9.73-5.555-19.876-22.509-19.908-33.233 0-8.252 18.88-70.352 63.159-207.684 19.33-59.884 21.899-65.792 31.146-71.411 9.12-5.555 16.858-6.133 83.1-6.165h73.048v-24.66c0-29.67 7.16-47.04 26.073-63.224 24.435-20.907 31.018-21.674 179.717-20.614 130.139.899 133.254 1.092 146.226 8.027 31.531 16.858 45.948 41.036 46.077 77.191l.064 23.28h67.59c71.38 0 82.168 1.894 89.586 15.733 1.766 3.34 13.486 38.371 26.04 77.834 12.555 39.494 30.633 96.039 40.201 125.644 20.84 64.475 21.482 73.627 6.55 90.901-10.82 12.555-10.949 12.587-39.333 14.193l-28.481 1.605-.835 138.874-.835 138.873h334.002v-279.352h-23.825c-21.224 0-24.981-.963-34.164-8.67-14.707-12.394-19.876-26.426-16.023-43.476 1.702-7.513 13.325-43.733 25.848-80.498s30.054-90.1 38.98-118.58c8.895-28.45 18.303-54.972 20.872-58.889 7.835-11.945 19.426-14.481 62.035-13.486l39.752.9.61 33.714.578 33.715 25.912.931 25.88.931 1.06-58.728c1.06-56.737 1.38-59.274 9.858-75.393 9.857-18.72 23.44-30.44 44.407-38.306 12.555-4.72 31.307-5.33 159.487-5.041 87.306.224 150.112 1.67 157.4 3.628 19.844 5.33 37.986 20.967 47.94 41.293 8.541 17.435 8.99 20.807 10.147 73.659l1.22 55.42h47.843l-2.28-34.003-2.248-34.004 37.055 1.091c31.114.932 38.146 2.088 43.893 7.29 4.175 3.788 11.239 20.55 18.238 43.347 6.294 20.422 24.34 78.411 40.073 128.855 15.734 50.476 28.61 97.42 28.61 104.356-.033 14.353-9.023 31.242-19.684 36.958-3.949 2.119-13.068 3.756-20.228 3.66-7.193-.096-22.092.546-33.137 1.445l-20.069 1.606v275.627h23.312c41.581 0 56.994 8.637 63.448 35.61 3.371 14.063 3.05 17.146-3.179 30.054-3.917 8.059-11.624 17.242-17.564 20.903l-10.596 6.55h-937.21c-912.228-.032-937.466-.193-947.131-6.069m690.063-226.724-.61-138.07-268.306-.836-268.339-.802v279.416l268.917-.803 268.916-.835zm1051.391.803-.835-138.874-268.916-1.06-268.916-1.027v279.834h539.502zm-992.374-235.49c.9-2.762-30.375-94.692-44.15-129.755l-3.179-8.027h-285.71c-157.143 0-285.71.128-285.71.289 0 .128-11.559 31.724-25.687 70.159s-25.687 70.094-25.687 70.351 150.529.482 334.484.45c235.105-.032 334.837-1.06 335.64-3.468m1063.24-.803c-.58-1.477-6.102-17.37-12.267-35.32l-11.206-32.623h-616.63l-11.206 32.623c-6.165 17.95-11.688 33.843-12.268 35.32-.608 1.477 148.701 2.698 331.789 2.698s332.397-1.22 331.789-2.698m-192.113-199.592v-41.742h-254.05l1.67 40.94c.899 22.508 1.702 41.292 1.798 41.742.064.45 56.48.802 125.355.802h125.227zm-1088.51-41.742v-12.844H564.479v25.688h221.555zm-356.48-82.04c-.031-1.67-.384-115.048-.802-251.898l-.738-248.848H283.52l-.899 42.16-.899 42.191 12.009 2.248c26.426 4.945 44.215 18.913 55.357 43.444 6.1 13.486 6.55 20.775 6.614 109.204.032 52.306-1.348 99.636-3.082 105.672-5.042 17.628-18.463 34.068-35.16 43.155-15.252 8.317-16.665 8.477-77.03 8.477-66.21 0-74.077-1.477-96.008-18.206-6.036-4.624-14.385-15.798-18.527-24.852-7.32-16.023-7.514-18.88-7.867-113.86-.385-96.714-.32-97.549 7.29-112.32 10.081-19.618 29.797-34.356 52.177-39.012l17.724-3.66v-86.247H95.905l-11.303-9.921c-14.096-12.362-19.49-29.798-14.674-47.586 2.89-10.725 7.193-16.055 26.651-33.009.385-.321 57.733-1.413 127.41-2.408l126.736-1.798-28.802-10.853c-105.865-39.977-170.565-80.595-247.596-155.506-54.265-52.756-71.7-74.301-73.98-91.287-2.055-15.22 5.234-33.78 15.99-40.843 16.73-10.95 24.275-10.757 80.949 1.99 75.617 17.018 101.883 19.908 183.023 20.165 76.356.225 103.2-2.537 170.18-17.435 114.823-25.56 233.371-75.104 346.782-144.942 127.731-78.636 224.862-162.956 336.09-291.779 20.581-23.857 40.425-45.145 44.085-47.361 9.023-5.427 33.908-5.073 44.986.642 4.977 2.569 16.793 13.775 26.297 24.885 143.337 167.772 285.293 281.535 462.055 370.254 207.684 104.227 396.102 131.295 592.419 85.025 62.549-14.738 70.127-14.128 85.925 6.904 18.045 24.05 14.513 39.848-17.275 76.87-82.425 96.136-169.667 157.786-285.838 202l-33.266 12.683 119.704.097c94.08.064 121.92 1.027 130.043 4.495 30.312 12.908 38.885 52.66 16.89 78.283-7.578 8.83-7.642 8.83-60.045 10.435l-52.467 1.606-.899 42.256-.899 42.224 13.743 2.215c16.826 2.73 38.178 14.642 47.522 26.49 15.348 19.523 15.99 24.629 15.99 127.636 0 106.892-.417 109.685-20.036 132.034-18.784 21.384-27.903 23.568-98.768 23.568-70.063 0-78.925-2.055-98.576-22.766s-20.23-24.563-20.23-133.318c0-93.15.354-99.41 6.648-112.35 9.343-19.33 25.59-32.4 48.067-38.629l19.138-5.33v-85.636H1974.08v232.794c0 128.052-.706 232.793-1.573 232.793s-8.188-5.041-16.28-11.206c-8.06-6.165-24.403-14.16-36.283-17.789-20.743-6.293-28.224-6.518-180.423-5.651l-158.781.931-18.624 8.734c-10.243 4.784-22.38 11.656-26.94 15.252-4.559 3.596-9.76 6.518-11.591 6.518-2.216 0-2.633-48.935-1.252-152.52l2.023-152.52H879.15v151.397c0 143.946-.289 151.17-5.62 146.483-9.504-8.349-30.439-17.564-48.966-21.61-12.651-2.73-59.05-3.532-163.758-2.793l-146.098 1.06-18.238 8.54c-21.45 10.083-44.985 30.729-57.733 50.701-5.009 7.835-9.151 12.908-9.183 11.238m355.676-163.5c.417-.322 1.156-41.294 1.605-91.063l.803-90.452H655.572c-123.14 0-132.162.385-133.415 5.619-.706 3.082-.738 44.214-.032 91.351l1.285 85.732 16.536 1.092c16.183 1.027 243.71-1.06 245.284-2.28m1095.156-90.003 1.027-91.511h-266.958v183.023h264.903zm-1611.315-6.518v-65.952l-32.912.93-32.912.9-1.028 32.11c-.578 17.66-.064 46.911 1.124 65.02l2.12 32.913h63.608zm1926.565.096v-65.825h-64.219v131.649h64.22zM609.43 999.143v-56.19h-86.696v112.382h86.696zm179.813 0v-56.192h-89.907v112.383h89.907zm179.812 0v-56.192H879.15v112.383h89.906zm185.721 0-1.092-56.192h-94.722v112.383h96.906zm183.538 0v-56.192h-93.118v112.383h93.118zm185.496-.803.899-55.389h-46.302c-39.238 0-46.59.771-48.228 5.074-1.092 2.793-1.959 28.127-1.959 56.287v51.183l47.361-.867 47.362-.9zm177.34.803v-56.192h-86.695v112.383h86.695zm179.074-.803.9-55.389h-86.568l-.93 54.875c-.547 30.151-.322 55.485.449 56.256.803.803 20.293 1.028 43.347.546l41.935-.9zM704.988 847.427c37.472-20.325 77.737-61.971 97.196-100.535 11.848-23.472 24.082-65.182 28.577-97.516 1.895-13.582 4.945-27.55 6.775-30.986 1.862-3.435 26.073-17.66 53.783-31.563 101.884-51.054 171.208-98.448 255.078-174.322 47.425-42.898 57.026-43.83 95.91-9.408 88.976 78.796 186.396 145.166 274.664 187.101 21.45 10.179 41.84 22.124 45.307 26.555 4.078 5.201 7.096 15.701 8.541 29.83 4.72 46.558 22.091 97.644 44.247 130.3 17.596 25.88 33.747 41.453 62.613 60.3l24.307 15.863h64.668l-18.559-16.536c-59.595-53.11-98.126-144.718-98.351-233.821l-.032-14.546-34.004-17.5c-39.687-20.389-120.956-72.085-166.712-106.025-74.462-55.196-134.924-110.263-201.198-183.12-24.885-27.39-46.205-49.77-47.393-49.77-1.156 0-11.4 10.854-22.702 24.083-102.59 120.121-256.682 245.38-383.482 311.718l-42.545 22.284-2.152 34.485c-5.362 86.76-37.76 155.314-100.823 213.496l-16.505 15.252h31.21c23.633 0 33.716-1.349 41.582-5.62m234.752-3.563c7.77-9.28 31.5-62.196 40.04-89.232 8.028-25.463 15.542-63.77 20.005-101.69l2.183-18.689-39.751 19.876c-21.834 10.95-40.779 21.513-42.063 23.504-1.317 1.991-2.409 6.711-2.409 10.5-.096 13.293-16.664 64.09-30.214 92.668-7.546 15.894-21.193 38.724-30.344 50.765l-16.6 21.866 47.36-2.151c38.147-1.734 48.261-3.179 51.793-7.417m214.78-152.167c.45-87.851-.064-159.744-1.156-159.744s-11.591 7-23.343 15.54c-11.752 8.542-24.371 17.115-28.064 19.106-6.293 3.371-6.84 7.128-8.734 60.719-1.123 31.435-4.11 68.36-6.646 82.071-7.257 39.238-24.243 93.696-37.376 119.865l-12.04 23.921 58.246-.867 58.278-.867zm205.244 157.336c-17.5-40.618-22.637-54.457-29.509-79.888-12.619-46.751-20.678-103.007-21.545-150.657l-.803-43.509-30.568-24.403-30.536-24.37-.835 159.39c-.45 87.691-.128 161.222.706 163.437 1.156 2.986 15.83 4.014 58.183 4.014 44.086 0 56.223-.9 54.907-4.014m184.019-17.21c-8.252-10.79-19.523-27.486-25.046-37.119-12.426-21.706-31.531-78.572-34.357-102.3l-2.15-17.757-37.408-19.17c-20.583-10.531-38.692-19.714-40.298-20.389-4.11-1.734.418 46.591 7.867 83.71 8.83 43.957 34.036 111.869 48.036 129.433 1.509 1.894 22.38 3.21 50.476 3.21h47.907zM484.557 827.39c9.537-1.734 31.018-9.922 47.811-18.207 25.367-12.49 35.096-19.618 57.893-42.577 18.817-18.912 31.018-34.581 39.013-50.026 12.427-23.986 25.11-61.522 25.11-74.237 0-7.706-.032-7.706-12.041-2.569-6.615 2.826-28.288 10.982-48.164 18.11s-36.123 14.674-36.123 16.729c0 6.036-24.692 55.389-35.93 71.86-16.184 23.665-43.188 50.477-65.568 65.054-11.27 7.354-20.518 14.642-20.518 16.216 0 3.789 27.068 3.596 48.517-.353m1483.07.77c0-1.316-6.133-5.876-13.646-10.146-37.633-21.353-71.251-60.848-97.613-114.631-9.858-20.1-19.683-36.573-21.802-36.573-2.152 0-22.413-7.256-45.018-16.15-22.637-8.863-41.581-15.67-42.16-15.124-2.247 2.247 8.413 44.953 15.83 63.255 25.207 62.421 77.898 109.815 140.993 126.8 17.853 4.817 63.48 6.647 63.416 2.57M354.161 762.53c25.784-8.542 52.05-24.853 72.086-44.793 9.054-9.023 15.926-16.986 15.22-17.692-.707-.707-10.532.899-21.835 3.564-31.724 7.45-126.094 12.362-177.051 9.215-24.275-1.477-44.15-1.894-44.15-.899 0 3.018 39.173 30.632 54.585 38.467 35.802 18.206 49.256 22.38 65.825 20.422 8.83-1.06 24.724-4.785 35.32-8.284m1759.179 3.981c25.141-8.67 52.467-23.665 71.283-39.141 8.701-7.16 16.215-14.032 16.664-15.252.482-1.22-12.522-.964-28.898.578-38.114 3.596-122.176.546-168.767-6.133-19.94-2.858-37.28-4.174-38.531-2.89-4.207 4.335 32.944 33.907 58.76 46.815 20.357 10.147 49.288 19.33 69.324 22.028 1.06.128 10.114-2.57 20.165-6.005M506.97 2123.616c-20.807-7.353-22.99-13.936-23.472-71.412-.29-34.742.835-53.558 3.467-58.47 6.23-11.56 18.367-17.597 35.32-17.597 17.597 0 29.702 6.39 35.29 18.592 5.586 12.33 4.944 102.075-.836 113.282-7.834 15.123-30.793 22.316-49.77 15.605m150.626-1.285c-19.715-10.114-22.83-21.192-21.802-76.966.899-46.59 1.284-49.095 8.733-57.026 15.99-17.018 45.467-16.986 61.458.032 7.513 7.963 7.835 10.307 8.83 60.815l.995 52.531-10.628 11.399c-13.454 14.353-30.953 17.724-47.586 9.215m158.588 3.404c-3.724-.835-10.949-5.844-16.054-11.142l-9.28-9.697-1.06-50.348c-1.444-67.397 3.95-77.672 40.619-77.672 31.628 0 39.11 14.16 39.11 73.851 0 46.013-3.469 60.045-17.051 68.94-8.573 5.618-25.366 8.412-36.284 6.068m741.824-2.505c-5.458-2.376-13.132-8.412-17.082-13.421-6.84-8.702-7.128-11.4-6.133-61.169l.996-52.081 9.28-9.697c11.366-11.849 22.957-14.706 40.36-10.018 22.863 6.165 25.785 14.802 25.817 75.874 0 58.728-2.344 65.44-25.046 71.733-14.802 4.11-16.054 4.077-28.192-1.22m311.173 1.027c-5.587-1.606-13.904-7.385-18.463-12.78-8.124-9.697-8.284-10.756-8.284-60.205.032-59.081 3.082-68.008 25.527-74.718 18.27-5.491 36.83.32 45.242 14.128 5.523 9.055 6.261 16.408 6.293 61.746 0 57.348-1.605 62.71-21.192 70.898-12.041 5.009-14.738 5.105-29.123.93m-169.955-10.595-10.918-10.917v-50.252c0-56.737 2.28-64.99 20.422-73.594 13.582-6.422 21.513-6.583 35.673-.675 18.367 7.674 20.968 17.082 20.968 75.81v51.761l-9.376 9.408c-8.188 8.156-11.752 9.376-27.614 9.376-16.472 0-19.298-1.06-29.155-10.917"/></svg>