<svg xmlns="http://www.w3.org/2000/svg" viewBox="0 0 2400 2400"><path fill="currentColor" fill-rule="nonzero" stroke="currentColor" stroke-width="20" d="M305.53 2380.226c-10.478-8.523-12.276-15.146-13.97-51.651-4.11-90.312 14.38-137.6 64.715-165.786 24.397-13.658 32.717-15.352 88.599-17.919 60.812-2.824 61.634-3.03 61.634-15.146 0-15.095 21.366-37.532 35.696-37.532 8.115 0 10.53-3.337 10.53-14.479 0-58.12 48.947-113.878 100-113.878h12.995V1639.09c0-178.622.668-551.166 1.438-827.904 1.644-558.61-.719-520.206 36.673-595.577C749.963 122.628 836.096 52.237 940.77 22.15c56.652-16.327 169.494-16.173 230.871.308 149.72 40.201 280.179 163.167 330.205 311.24 26.554 78.504 27.992 94.42 30.458 331.367l2.362 223.496 38.984 17.56c49.358 22.23 83.103 44.924 121.008 81.532 136.52 131.848 218.75 352.571 242.479 651.079l3.39 41.947 71.855 1.694c71.495 1.643 71.906 1.695 84.233 16.07l12.378 14.377v284.44c0 197.515-1.746 288.238-5.701 296.915-9.348 20.589-25.116 23.926-111.969 23.926-110.581 0-105.856 4.056-110.787-95.036l-3.75-74.755-14.175 18.945c-35.491 47.595-119.365 98.887-184.286 112.647-25.116 5.288-76.375 7.24-193.942 7.29l-159.786.103-3.287-26.955c-1.747-14.838-4.674-33.321-6.42-41.074l-3.185-14.12 166.206-.05c124.09-.052 172.935-1.85 192.607-7.086 91.989-24.49 168.57-107.101 186.957-201.726 8.731-44.925 3.544-358.374-7.242-438.058-43.247-318.89-163.742-530.167-337.036-591.008-47.92-16.789-127.429-17.046-175.4-.462-119.262 41.177-219.88 160.087-278.895 329.621-52.44 150.64-74.73 306.21-74.73 521.9v103.97l-18.8-7.855c-10.323-4.313-28.248-9.447-39.805-11.398l-21.007-3.594-1.643-40.92c-2.671-67.67 8.629-267.446 19.21-338.761 40.934-276.122 145.507-481.648 296.459-582.588 20.853-13.914 51.927-30.395 69.03-36.659l31.177-11.346-2.055-213.535c-2.26-237.307-2.876-242.544-38.11-309.495-45.61-86.77-128.661-138.575-222.55-138.832-72.112-.205-125.837 27.88-157.99 82.457l-14.072 23.977-1.336 814.401-1.335 814.35 20.596 2.772c11.3 1.54 30.766 8.728 43.195 16.02 27.684 16.224 49.307 55.193 49.307 88.874 0 18.843 1.541 22.077 10.53 22.077 14.33 0 35.696 22.488 35.696 37.583 0 12.22.719 12.374 60.35 14.94 84.028 3.544 115.204 18.587 141.553 68.133 9.04 17.046 11.248 31.576 12.892 85.743 1.9 64.23 1.746 65.36-11.197 78.297l-13.097 13.093H774.41c-441.3 0-457.222-.308-468.882-9.755Zm844.849-70.545 23.832-3.235v-27.776c0-22.643-2.312-30.087-12.584-40.407-12.327-12.271-14.638-12.58-91.321-12.58-88.753 0-99.745-3.44-102.518-32.14l-1.593-16.635-191.322-1.335-191.322-1.335v12.168c0 6.726-4.777 18.33-10.632 25.774l-10.684 13.504H485.81c-45.044 0-81.562 2.361-88.907 5.699-16.487 7.496-23.935 25.004-23.935 56.169v25.415h376.79c207.245 0 387.524-1.49 400.622-3.286Zm876.436-309.906v-236.177h-66.77v472.354h66.77zm-1114.55 79.222c0-7.24-2.413-17.61-5.341-23.104-5.033-9.396-12.019-9.91-133.335-9.91s-128.302.514-133.335 9.91c-2.928 5.493-5.342 15.865-5.342 23.104v13.195h277.354zM805.64 1138.395l1.335-825.44 16.436-33.423c30.714-62.28 98.46-113.571 169.648-128.358 45.403-9.395 124.963-3.8 166.977 11.81 119.518 44.257 202.827 144.632 227.635 274.067 5.65 29.574 7.396 85.281 7.396 235.51v196.695l28.249 1.797 28.249 1.746V674.512c0-219.901-3.441-256.252-31.228-328.183-30.714-79.685-100.104-162.655-171.137-204.756-55.574-32.962-106.062-47.492-175.298-50.419-74.32-3.183-127.737 7.959-181.05 37.789-64.15 35.837-119.878 105.92-137.804 173.282-5.804 21.718-7.036 169.124-7.088 843.974l-.05 817.636h56.394zm545.77 903.378c-96.51-28.598-176.274-110.027-197.332-201.315-9.502-41.228-6.575-111.568 6.214-149.048 32.667-95.858 102.673-160.806 199.592-185.348 125.631-31.73 257.939 30.549 313.358 147.61 15.614 33.065 29.841 90.21 29.841 120.194 0 32.603-14.843 89.286-32.871 125.79-29.944 60.585-89.421 113.211-154.65 136.932-42.322 15.403-121.368 17.918-164.153 5.185Zm111.454-73.42c62.148-13.195 111.507-52.678 139.345-111.311 14.74-31.114 16.282-39.02 16.282-83.176 0-43.847-1.593-52.164-15.82-82.148-19.415-40.92-54.238-76.707-93.376-95.909-26.656-13.092-34.669-14.479-83.411-14.479-48.485 0-56.857 1.438-82.795 14.171-45.096 22.129-73.499 50.419-95.584 94.984-17.874 36.146-19.364 42.615-19.364 83.381 0 40.715 1.49 47.236 19.364 83.278 42.424 85.846 127.582 129.795 215.36 111.21Zm-272.37-601.687c-14.536-15.506-14.125-25.056 4.57-109.669 22.548-102.018 32.872-130.565 57.115-158.136 40.935-46.516 96.097-61.663 203.443-56.066 46.329 2.413 66.103 5.802 86.185 14.684 30.407 13.503 59.323 41.485 73.807 71.418 8.834 18.227 56.806 203.061 56.806 218.875 0 3.029-5.65 11.244-12.583 18.175l-12.635 12.579h-445.512zm385.88-69.005c1.13-2.105-4.674-32.192-12.943-66.797-23.524-98.27-42.374-111.62-153.212-108.282-54.29 1.643-61.378 2.978-80.227 15.454-25.527 16.892-33.437 33.578-47.92 101.197-9.503 44.257-10.273 54.012-4.418 57.71 8.526 5.39 295.74 6.109 298.72.718Z"/></svg>